<svg width="16" height="14" viewBox="0 0 16 14" fill="none" xmlns="http://www.w3.org/2000/svg">
<path d="M13.6 0H2.4C1.76348 0 1.15303 0.276562 0.702944 0.768845C0.252856 1.26113 0 1.92881 0 2.625V11.375C0 12.0712 0.252856 12.7389 0.702944 13.2312C1.15303 13.7234 1.76348 14 2.4 14H13.6C14.2365 14 14.847 13.7234 15.2971 13.2312C15.7471 12.7389 16 12.0712 16 11.375V2.625C16 1.92881 15.7471 1.26113 15.2971 0.768845C14.847 0.276562 14.2365 0 13.6 0ZM13.272 1.75L8.568 6.895C8.49363 6.97701 8.40515 7.04211 8.30766 7.08653C8.21017 7.13095 8.10561 7.15382 8 7.15382C7.89439 7.15382 7.78983 7.13095 7.69234 7.08653C7.59485 7.04211 7.50637 6.97701 7.432 6.895L2.728 1.75H13.272ZM14.4 11.375C14.4 11.6071 14.3157 11.8296 14.1657 11.9937C14.0157 12.1578 13.8122 12.25 13.6 12.25H2.4C2.18783 12.25 1.98434 12.1578 1.83431 11.9937C1.68429 11.8296 1.6 11.6071 1.6 11.375V2.98375L6.304 8.12875C6.754 8.62033 7.364 8.89644 8 8.89644C8.636 8.89644 9.246 8.62033 9.696 8.12875L14.4 2.98375V11.375Z" fill="#5F6A85"/>
</svg>
