<svg width="14" height="14" viewBox="0 0 14 14" fill="none" xmlns="http://www.w3.org/2000/svg">
<path d="M10.4038 4.86791C9.8184 4.86766 9.24209 5.01211 8.72635 5.28833C8.67929 5.16467 8.59562 5.05823 8.48648 4.98313C8.37733 4.90804 8.24786 4.86785 8.11527 4.86791H5.49983C5.41395 4.86786 5.32891 4.8847 5.24955 4.91746C5.1702 4.95023 5.0981 4.99827 5.03738 5.05885C4.97665 5.11943 4.92849 5.19136 4.89565 5.27052C4.86281 5.34969 4.84593 5.43453 4.84598 5.5202V13.3477C4.84593 13.4334 4.8628 13.5182 4.89565 13.5974C4.92849 13.6765 4.97665 13.7485 5.03737 13.8091C5.0981 13.8696 5.1702 13.9177 5.24955 13.9504C5.32891 13.9832 5.41395 14 5.49983 14H8.11527C8.20115 14 8.2862 13.9832 8.36555 13.9504C8.4449 13.9177 8.517 13.8696 8.57773 13.8091C8.63846 13.7485 8.68662 13.6765 8.71946 13.5974C8.7523 13.5182 8.76918 13.4334 8.76913 13.3477V9.7601C8.76913 9.5871 8.83802 9.42119 8.96064 9.29886C9.08326 9.17653 9.24957 9.10781 9.42299 9.10781C9.5964 9.10781 9.76271 9.17653 9.88534 9.29886C10.008 9.42119 10.0768 9.5871 10.0768 9.7601V13.3477C10.0768 13.4334 10.0937 13.5182 10.1265 13.5974C10.1594 13.6765 10.2075 13.7485 10.2682 13.8091C10.329 13.8696 10.4011 13.9177 10.4804 13.9504C10.5598 13.9832 10.6448 14 10.7307 14H13.3461C13.432 14 13.5171 13.9832 13.5964 13.9504C13.6758 13.9177 13.7479 13.8696 13.8086 13.8091C13.8693 13.7485 13.9175 13.6765 13.9503 13.5974C13.9832 13.5182 14 13.4334 14 13.3477V8.45552C13.9988 7.50439 13.6195 6.59255 12.9454 5.92C12.2712 5.24745 11.3572 4.86909 10.4038 4.86791V4.86791ZM12.6923 12.6954H11.3846V9.7601C11.3846 9.24111 11.1779 8.74337 10.81 8.37638C10.4422 8.0094 9.94323 7.80322 9.42299 7.80322C8.90274 7.80322 8.40381 8.0094 8.03594 8.37638C7.66808 8.74337 7.46141 9.24111 7.46141 9.7601V12.6954H6.15369V6.17249H7.46141V6.63114C7.46149 6.7663 7.50363 6.89809 7.58201 7.00833C7.6604 7.11857 7.77116 7.20181 7.899 7.24656C8.02683 7.2913 8.16545 7.29535 8.29569 7.25814C8.42593 7.22093 8.54138 7.1443 8.6261 7.03882C8.91953 6.66704 9.32202 6.39595 9.77737 6.2634C10.2327 6.13086 10.7182 6.14348 11.166 6.2995C11.6138 6.45552 12.0016 6.74715 12.2752 7.13368C12.5489 7.5202 12.6947 7.98233 12.6923 8.45552V12.6954ZM3.53826 4.86791H0.922822C0.836943 4.86786 0.751895 4.8847 0.672543 4.91746C0.593192 4.95023 0.521091 4.99827 0.460365 5.05885C0.399639 5.11943 0.351478 5.19136 0.318636 5.27052C0.285794 5.34969 0.268914 5.43453 0.268963 5.5202V13.3477C0.268914 13.4334 0.285792 13.5182 0.318634 13.5974C0.351476 13.6765 0.399637 13.7485 0.460363 13.8091C0.521089 13.8696 0.59319 13.9177 0.672542 13.9504C0.751895 13.9832 0.836942 14 0.922822 14H3.53826C3.62414 14 3.70919 13.9832 3.78854 13.9504C3.86789 13.9177 3.93999 13.8696 4.00072 13.8091C4.06144 13.7485 4.1096 13.6765 4.14245 13.5974C4.17529 13.5182 4.19217 13.4334 4.19212 13.3477V5.5202C4.19217 5.43453 4.17529 5.34969 4.14244 5.27052C4.1096 5.19136 4.06144 5.11943 4.00071 5.05885C3.93999 4.99827 3.86789 4.95023 3.78854 4.91746C3.70918 4.8847 3.62414 4.86786 3.53826 4.86791V4.86791ZM2.8844 12.6954H1.57668V6.17249H2.8844V12.6954ZM2.24012 0.00376794C1.95396 -0.0133199 1.66732 0.0278357 1.39761 0.124732C1.1279 0.221628 0.880761 0.37224 0.671229 0.567409C0.461697 0.762577 0.294147 0.998223 0.178769 1.26002C0.0633913 1.52181 0.00259631 1.80428 8.13561e-05 2.09025C-0.00243359 2.37622 0.0533841 2.65971 0.16414 2.92348C0.274896 3.18725 0.438275 3.4258 0.644342 3.6246C0.850409 3.82341 1.09486 3.97832 1.36282 4.07993C1.63079 4.18153 1.91667 4.22769 2.20308 4.21562H2.2216C2.50851 4.23262 2.79588 4.19108 3.06616 4.09354C3.33643 3.996 3.58393 3.84451 3.79354 3.64833C4.00314 3.45214 4.17045 3.21538 4.28523 2.95251C4.40001 2.68964 4.45986 2.40618 4.46113 2.11945C4.46239 1.83273 4.40503 1.54875 4.29256 1.28489C4.18009 1.02103 4.01488 0.782808 3.80701 0.584794C3.59913 0.386781 3.35297 0.23313 3.08357 0.13323C2.81416 0.0333294 2.52716 -0.0107217 2.24011 0.00376794H2.24012ZM2.2216 2.91103H2.20308C2.09 2.92473 1.9753 2.91415 1.86666 2.88C1.75802 2.84586 1.65796 2.78893 1.57318 2.71304C1.4884 2.63715 1.42087 2.54406 1.37511 2.44C1.32935 2.33594 1.30642 2.22332 1.30786 2.1097C1.30786 1.62302 1.67374 1.30835 2.24012 1.30835C2.35435 1.29315 2.47051 1.30256 2.58079 1.33593C2.69107 1.3693 2.7929 1.42585 2.87942 1.50178C2.96594 1.57772 3.03515 1.67127 3.08238 1.77613C3.12961 1.881 3.15377 1.99474 3.15322 2.1097C3.15322 2.59637 2.78734 2.91103 2.2216 2.91103Z" fill="#5F6A85"/>
</svg>
