<svg width="30" height="30" viewBox="0 0 30 30" fill="none" xmlns="http://www.w3.org/2000/svg">
<path d="M27.3618 30H2.6411C1.18556 30 0 28.8162 0 27.3628V20.295C0 19.8086 0.393231 19.4159 0.880368 19.4159C1.3675 19.4159 1.76074 19.8086 1.76074 20.295V27.3628C1.76074 27.8463 2.15397 28.2418 2.6411 28.2418H27.3618C27.846 28.2418 28.2422 27.8492 28.2422 27.3628V12.4302C28.2422 12.1606 28.1219 11.9086 27.9106 11.7416L15.5473 1.94862C15.2245 1.69369 14.7755 1.69369 14.4527 1.94862L2.09234 11.7416C1.88105 11.9086 1.76074 12.1606 1.76074 12.4302V15.4513C1.76074 15.7765 1.93974 16.0725 2.22733 16.2278L8.82422 19.7324C9.25266 19.9609 9.417 20.4913 9.1881 20.9221C8.95921 21.3499 8.42805 21.514 7.99667 21.2854L1.39978 17.7779C0.537024 17.3178 0 16.427 0 15.4513V12.4302C0 11.6214 0.363885 10.8683 1.00068 10.3643L13.361 0.571401C13.8247 0.202188 14.4087 0 15.0015 0C15.5942 0 16.1782 0.202188 16.6419 0.571401L29.0022 10.3643C29.6361 10.8683 30 11.6214 30 12.4302V27.3628C30.0029 28.8162 28.8174 30 27.3618 30Z" fill="#3574B9"/>
<path fill-rule="evenodd" clip-rule="evenodd" d="M15.917 26.1879H15.9229C16.6741 26.1879 17.3344 25.6575 17.5017 24.922C17.6044 24.4502 17.305 23.9814 16.8296 23.8759C16.3953 23.7821 15.9639 24.0253 15.8143 24.4297L14.1563 24.4238L14.0213 23.7909C13.9039 23.24 13.4989 22.7829 12.9648 22.6012C12.6772 22.5045 12.3985 22.3873 12.1285 22.2496C11.6208 21.9888 11.0075 22.0181 10.5262 22.3258L9.97451 22.6774L8.81243 21.5082L9.19392 20.9222C9.49911 20.4533 9.53726 19.8497 9.29369 19.3457C9.17044 19.0878 9.0648 18.8212 8.97676 18.5516C8.80069 18.0066 8.34583 17.5934 7.78826 17.4703L7.09277 17.318L7.09864 15.6712L7.85869 15.51C8.40159 15.3928 8.85644 15.0001 9.04132 14.4785C9.13229 14.2295 9.235 13.9863 9.35532 13.7518C9.61356 13.2449 9.58128 12.6354 9.27609 12.1578L8.85057 11.4955L10.0215 10.3352L10.7228 10.7893C11.1894 11.0912 11.791 11.1293 12.2928 10.8919C12.5158 10.7864 12.7477 10.6926 12.9795 10.6135C13.5107 10.4348 13.9156 9.98352 14.0359 9.43556L14.2149 8.61802L15.8642 8.62388L16.0373 9.44435C16.1547 9.99231 16.5567 10.4465 17.0849 10.6311C17.3168 10.7132 17.5457 10.8069 17.7687 10.9153C18.2676 11.1556 18.8692 11.1205 19.3387 10.8216L20.043 10.3732L21.2051 11.5424L20.7766 12.2017C20.4685 12.6764 20.4333 13.2859 20.6856 13.7929C20.803 14.0273 20.9057 14.2734 20.9938 14.5225C21.1757 15.0441 21.6247 15.4397 22.1676 15.5598L22.9247 15.7268L22.9188 17.3736L22.2234 17.5201C21.6629 17.6403 21.2051 18.0505 21.0261 18.5926C20.938 18.8622 20.8294 19.1289 20.7033 19.3838C20.4568 19.8878 20.489 20.4914 20.7913 20.9603L21.1669 21.5493L20.2367 22.4723L17.2581 18.2076C17.2533 18.2002 17.2483 18.1929 17.2432 18.1856C17.1928 18.1136 17.1337 18.0515 17.0682 17.9996C16.771 17.7633 16.3418 17.7368 16.0138 17.9655C15.9946 17.9791 15.9761 17.9932 15.9582 18.008C15.6751 18.1904 15.3502 18.2852 15.01 18.2852C14.0386 18.2852 13.2492 17.497 13.2492 16.5271C13.2492 15.5571 14.0386 14.7689 15.01 14.7689C15.7289 14.7689 16.3716 15.1996 16.6416 15.8677C16.8265 16.3161 17.3371 16.5329 17.789 16.3512C18.238 16.1666 18.4551 15.6568 18.2732 15.2055C18.012 14.5638 17.5718 14.0158 16.9996 13.6232C16.4098 13.2217 15.7231 13.0078 15.007 13.0078C13.0644 13.0078 11.4856 14.5843 11.4856 16.5241C11.4856 18.464 13.0644 20.0404 15.007 20.0404C15.4318 20.0404 15.8464 19.966 16.2375 19.8212L18.8926 23.621C19.1655 24.0136 19.594 24.2597 20.0694 24.3037C20.5448 24.3477 21.0114 24.1806 21.3489 23.8436L22.4904 22.7126C23.0245 22.1822 23.1184 21.3353 22.7134 20.7024L22.3173 20.0841C22.4523 19.8058 22.5696 19.5186 22.6694 19.2256L23.4001 19.0703C24.1367 18.915 24.6737 18.2556 24.6766 17.5026L24.6825 15.6155C24.6855 14.8653 24.1543 14.2002 23.4177 14.039L22.6225 13.8632C22.5286 13.5995 22.42 13.3416 22.2967 13.0896L22.7457 12.401C23.1565 11.771 23.0685 10.9241 22.5374 10.3908L21.2051 9.0517C20.6739 8.51839 19.8258 8.42462 19.192 8.829L18.4583 9.29784C18.2236 9.18649 17.9829 9.08686 17.7394 8.99895L17.5574 8.14332C17.4019 7.40782 16.7416 6.87158 15.9874 6.86865L14.0976 6.86279H14.0917C13.3434 6.86279 12.6802 7.39317 12.5188 8.12573L12.331 8.97844C12.0874 9.06342 11.8438 9.16305 11.6091 9.27147L10.8784 8.79676C10.2474 8.38653 9.39934 8.47444 8.86525 9.00481L7.52415 10.3352C6.99006 10.8655 6.89616 11.7124 7.30113 12.3453L7.74425 13.0398C7.62099 13.2889 7.50948 13.5496 7.41264 13.8104L6.61738 13.9804C5.8808 14.1357 5.34378 14.795 5.34084 15.5481L5.33497 17.4352C5.33204 18.1853 5.86319 18.8505 6.59977 19.0117L7.32754 19.1728C7.42438 19.4658 7.53883 19.753 7.67088 20.0343L7.26885 20.6497C6.85801 21.2797 6.94605 22.1265 7.4772 22.6598L8.80949 23.999C9.34065 24.5323 10.1887 24.626 10.8226 24.2217L11.4036 23.8524C11.6971 23.999 12.0052 24.1308 12.3163 24.2392L12.4571 24.9073C12.6127 25.6428 13.273 26.1791 14.0271 26.182L15.917 26.1879ZM15.9582 18.008C15.6089 18.2968 15.5314 18.8112 15.7967 19.1904L16.2375 19.8212C16.5137 19.7189 16.7782 19.5815 17.026 19.4104C17.4178 19.1372 17.5183 18.6041 17.2581 18.2076L17.2405 18.1824C17.1908 18.1119 17.1326 18.0509 17.0682 17.9996C16.7711 17.7644 16.3436 17.7406 16.0165 17.9687C15.9973 17.9822 15.9779 17.9953 15.9582 18.008Z" fill="#F8B11C"/>
</svg>
