<svg width="26" height="30" viewBox="0 0 26 30" fill="none" xmlns="http://www.w3.org/2000/svg">
<path d="M12.9841 30L2.3662 27.0011L0 0H26L23.6314 26.9969L12.9841 30Z" fill="#264DE4"/>
<path d="M21.664 25.2138L23.6862 2.18188H13.0684V27.6364L21.664 25.2138Z" fill="#2965F1"/>
<path fill-rule="evenodd" clip-rule="evenodd" d="M4.90039 5.45459L5.19646 8.76166H13.0679V5.45459H4.90039ZM5.4873 12.1482L5.7792 15.4552H13.0682V12.1482H5.4873ZM13.054 20.7408L13.0683 20.7369V24.1777L13.0533 24.1818L6.3811 22.3013L5.9248 17.1087H9.19455L9.42648 19.7463L13.054 20.7408Z" fill="#EBEBEB"/>
<path d="M20.5106 12.1487L21.0992 5.45459H12.9317V8.76193H17.526L17.2293 12.1487H12.9317V15.456H16.9467L16.5681 19.7454L12.9316 20.741V24.1819L19.6158 22.3028L19.6648 21.744L20.4311 13.0368L20.5106 12.1487Z" fill="white"/>
</svg>
