<svg width="30" height="30" viewBox="0 0 30 30" fill="none" xmlns="http://www.w3.org/2000/svg">
<g clip-path="url(#clip0)">
<path d="M0.244141 7.79944L2.88661 9.27729L16.4995 1.71271L13.8293 0.234863L0.244141 7.79944Z" fill="white"/>
<path fill-rule="evenodd" clip-rule="evenodd" d="M13.707 0.0316149C13.7825 -0.0104283 13.8756 -0.0105454 13.9512 0.0313078L16.6213 1.50915C16.697 1.55102 16.7437 1.62854 16.7437 1.71247C16.7438 1.7964 16.6973 1.874 16.6218 1.916L3.00889 9.48057C2.93308 9.5227 2.8396 9.52258 2.7639 9.48024L0.121432 8.0024C0.0461807 7.9603 -8.261e-05 7.88288 1.10746e-07 7.79918C8.28121e-05 7.71547 0.046499 7.63814 0.121834 7.5962L13.707 0.0316149ZM13.8298 0.505983L0.730758 7.79985L2.88708 9.00582L16.0108 1.71308L13.8298 0.505983Z" fill="#000020"/>
<path d="M0.244141 7.79932V22.9285L2.91428 24.4064L2.88661 9.27716L0.244141 7.79932Z" fill="white"/>
<path fill-rule="evenodd" clip-rule="evenodd" d="M0.12245 7.59572C0.198204 7.55383 0.291467 7.55405 0.367009 7.59629L3.00948 9.07415C3.08453 9.11611 3.13075 9.19324 3.13091 9.27672L3.15859 24.4058C3.15874 24.4897 3.11231 24.5674 3.0368 24.6095C2.96129 24.6515 2.86817 24.6516 2.79253 24.6098L0.122387 23.132C0.046669 23.09 0 23.0125 0 22.9285V7.79928C0 7.71525 0.0466964 7.63763 0.12245 7.59572ZM0.488441 8.20753V22.7927L2.6694 23.9998L2.64271 9.41234L0.488441 8.20753Z" fill="#000020"/>
<path d="M2.88672 9.27698L16.4995 1.7124V16.8416L2.91439 24.4061L2.88672 9.27698Z" fill="#000020"/>
<path fill-rule="evenodd" clip-rule="evenodd" d="M16.6217 1.50922C16.6973 1.55116 16.7439 1.62869 16.7439 1.71261V16.8417C16.7439 16.9255 16.6974 17.0029 16.6221 17.0449L3.03686 24.6096C2.96137 24.6516 2.8683 24.6517 2.79269 24.6099C2.71707 24.568 2.67041 24.4906 2.67025 24.4067L2.64258 9.27759C2.64242 9.19359 2.68895 9.11591 2.76459 9.07387L16.3775 1.50929C16.453 1.4673 16.5461 1.46728 16.6217 1.50922ZM3.13127 9.41256L3.15795 23.9994L16.2555 16.7064V2.11955L3.13127 9.41256Z" fill="#000020"/>
<path d="M4.92188 10.3886L7.56435 11.8664L21.1772 4.30182L18.5071 2.82397L4.92188 10.3886Z" fill="white"/>
<path fill-rule="evenodd" clip-rule="evenodd" d="M18.3847 2.62097C18.4602 2.57893 18.5533 2.57881 18.6289 2.62066L21.2992 4.09851C21.3748 4.14038 21.4214 4.2179 21.4214 4.30183C21.4216 4.38576 21.375 4.46335 21.2995 4.50535L7.68663 12.0699C7.6108 12.112 7.51733 12.1119 7.44163 12.0695L4.79916 10.5918C4.72391 10.5497 4.67765 10.4722 4.67773 10.3885C4.67782 10.3048 4.72423 10.2275 4.79957 10.1856L18.3847 2.62097ZM18.5075 3.09534L5.40849 10.3892L7.56481 11.5952L20.6885 4.30244L18.5075 3.09534Z" fill="#000020"/>
<path d="M4.92188 10.3889V25.5181L7.59202 26.9959L7.56435 11.8668L4.92188 10.3889Z" fill="white"/>
<path fill-rule="evenodd" clip-rule="evenodd" d="M4.80018 10.1853C4.87594 10.1434 4.9692 10.1436 5.04474 10.1859L7.68721 11.6637C7.76226 11.7057 7.80849 11.7829 7.80864 11.8663L7.83631 26.9954C7.83647 27.0794 7.79004 27.157 7.71454 27.1991C7.63902 27.2412 7.5459 27.2413 7.47027 27.1994L4.80012 25.7216C4.7244 25.6797 4.67773 25.602 4.67773 25.518V10.3889C4.67773 10.3048 4.72443 10.2272 4.80018 10.1853ZM5.16617 10.7971V25.3822L7.34713 26.5894L7.32045 12.002L5.16617 10.7971Z" fill="#000020"/>
<path d="M7.56445 11.8666L21.1773 4.302V19.4311L7.59214 26.9957L7.56445 11.8666Z" fill="#000020"/>
<path fill-rule="evenodd" clip-rule="evenodd" d="M21.2995 4.09858C21.3751 4.14052 21.4216 4.21805 21.4216 4.30197V19.4312C21.4216 19.5149 21.3752 19.5924 21.2998 19.6344L7.7146 27.1989C7.6391 27.241 7.54603 27.2411 7.47042 27.1992C7.39481 27.1574 7.34814 27.08 7.34798 26.9961L7.32031 11.8669C7.32016 11.7829 7.36668 11.7053 7.44233 11.6633L21.0552 4.09865C21.1308 4.05666 21.2239 4.05664 21.2995 4.09858ZM7.809 12.0019L7.83569 26.5887L20.9331 19.2957V4.7089L7.809 12.0019Z" fill="#000020"/>
<path d="M7.56934 14.3982L12.5238 29.7654L15.3502 28.8762L10.1988 13.4902L7.56934 14.3982Z" fill="white"/>
<path fill-rule="evenodd" clip-rule="evenodd" d="M10.3067 13.2794C10.3661 13.3076 10.4111 13.3577 10.4314 13.4182L15.5828 28.8041C15.624 28.9271 15.554 29.0591 15.4262 29.0992L12.5999 29.9885C12.5376 30.008 12.4699 30.0028 12.4117 29.9739C12.3536 29.945 12.31 29.8949 12.2906 29.8348L7.3362 14.4677C7.2975 14.3477 7.36394 14.2196 7.48692 14.1771L10.1164 13.2692C10.1787 13.2477 10.2474 13.2514 10.3067 13.2794ZM7.87193 14.5432L12.6838 29.4679L15.0433 28.7255L10.0438 13.7932L7.87193 14.5432Z" fill="#000020"/>
<path d="M21.1758 7.40653L26.1302 22.7737L28.9567 21.8844L23.8052 6.49854L21.1758 7.40653Z" fill="white"/>
<path fill-rule="evenodd" clip-rule="evenodd" d="M23.9123 6.2878C23.9717 6.3159 24.0165 6.36596 24.0368 6.42654L29.1883 21.8125C29.2295 21.9355 29.1595 22.0674 29.0318 22.1076L26.2053 22.9968C26.1432 23.0164 26.0754 23.0111 26.0173 22.9823C25.9591 22.9533 25.9155 22.9032 25.8961 22.8431L20.9417 7.47603C20.903 7.35601 20.9694 7.22797 21.0924 7.1855L23.7218 6.27749C23.7841 6.25598 23.8529 6.25971 23.9123 6.2878ZM21.4774 7.55157L26.2892 22.4763L28.6489 21.7339L23.6493 6.80156L21.4774 7.55157Z" fill="#000020"/>
<path d="M10.1982 13.4902L23.8046 6.49854L28.956 21.8844L15.3497 28.876L10.1982 13.4902Z" fill="white"/>
<path fill-rule="evenodd" clip-rule="evenodd" d="M23.8962 6.2808C23.9634 6.3069 24.015 6.36028 24.0372 6.42654L29.1886 21.8125C29.2248 21.9205 29.1754 22.0379 29.0712 22.0915L15.4649 29.0831C15.401 29.1159 15.3253 29.1198 15.2582 29.0937C15.1912 29.0676 15.1394 29.0142 15.1174 28.948L9.96589 13.562C9.92969 13.454 9.97911 13.3366 10.0832 13.283L23.6896 6.29139C23.7534 6.25859 23.8291 6.2547 23.8962 6.2808ZM10.4933 13.6048L15.4926 28.5363L28.6612 21.7697L23.6618 6.83815L10.4933 13.6048Z" fill="#000020"/>
<path d="M10.1988 13.4902L7.56934 14.3981L21.1757 7.40653L23.8051 6.49854L10.1988 13.4902Z" fill="white"/>
<path fill-rule="evenodd" clip-rule="evenodd" d="M24.0284 6.40327C24.0804 6.51573 24.0332 6.64766 23.9203 6.70566L10.314 13.6972C10.3035 13.7027 10.2926 13.7073 10.2814 13.7111L7.65201 14.6192C7.53156 14.6607 7.39817 14.6059 7.34625 14.4934C7.29432 14.381 7.34148 14.249 7.45436 14.191L21.0607 7.19943C21.0712 7.19404 21.0821 7.18941 21.0932 7.18554L23.7227 6.27754C23.8432 6.23595 23.9765 6.2908 24.0284 6.40327Z" fill="#000020"/>
<path d="M17.9358 12.2375L17.0175 12.6884L16.1008 13.1393L15.3584 23.8192L17.1624 24.5941L18.5366 16.0495L25.7281 20.3844L26.3044 18.44L17.9358 12.2375Z" fill="#000020"/>
<path fill-rule="evenodd" clip-rule="evenodd" d="M17.8238 12.0286C17.9079 11.9874 18.0092 11.9964 18.084 12.0517L26.4526 18.2544C26.5318 18.313 26.5658 18.4122 26.5384 18.5046L25.9621 20.4491C25.9409 20.5201 25.8863 20.5774 25.8147 20.6039C25.7429 20.6304 25.6625 20.6229 25.5974 20.5836L18.7203 16.4382L17.4028 24.6303C17.3912 24.7026 17.3452 24.7656 17.2783 24.8006C17.2114 24.8356 17.1314 24.8387 17.0619 24.8088L15.258 24.0339C15.1646 23.9937 15.107 23.9019 15.1138 23.8038L15.8563 13.1238C15.862 13.0414 15.9123 12.968 15.9888 12.9304L17.8238 12.0286ZM16.3345 13.2879L15.6125 23.6718L16.969 24.2545L18.2943 16.0138C18.3069 15.9358 18.3595 15.869 18.4341 15.8361C18.5089 15.8034 18.5958 15.8088 18.6654 15.8508L25.5814 20.0196L26.0233 18.5291L17.9083 12.5144L16.3345 13.2879Z" fill="#000020"/>
</g>
<defs>
<clipPath id="clip0">
<rect width="30" height="30" fill="white"/>
</clipPath>
</defs>
</svg>
