<svg width="33" height="30" viewBox="0 0 33 30" fill="none" xmlns="http://www.w3.org/2000/svg">
<path d="M32.9395 17.1537L31.091 11.5471L27.433 0.426541C27.3466 0.172122 27.1052 0.000637321 26.8333 0.000637321C26.5614 0.000637321 26.3199 0.172122 26.2335 0.426541L22.5756 11.5403H10.4218L6.76383 0.426541C6.67801 0.171852 6.43658 0 6.16459 0C5.89261 0 5.65118 0.171852 5.56536 0.426541L1.91326 11.5403L0.0647284 17.1537C-0.103734 17.6649 0.0800903 18.2251 0.520263 18.5418L16.5002 30L32.4771 18.5418C32.9193 18.2265 33.1059 17.6664 32.9395 17.1537Z" fill="#FC6D26"/>
<path d="M16.5002 29.9912L22.5766 11.5393H10.4268L16.5002 29.9912Z" fill="#E24329"/>
<path d="M16.5 29.9912L10.4216 11.5393H1.91699L16.5 29.9912Z" fill="#FC6D26"/>
<path d="M1.91033 11.5452L0.0617987 17.1517C-0.106664 17.663 0.0771607 18.2231 0.517334 18.5399L16.5002 30L1.91033 11.5452Z" fill="#FCA326"/>
<path d="M1.91309 11.5453H10.4285L6.76365 0.432496C6.6773 0.178076 6.43583 0.0065918 6.16393 0.0065918C5.89203 0.0065918 5.65056 0.178076 5.56421 0.432496L1.91309 11.5453Z" fill="#E24329"/>
<path d="M16.5 29.9912L22.5764 11.5393H31.0947L16.5 29.9912Z" fill="#FC6D26"/>
<path d="M31.0888 11.5452L32.9374 17.1517C33.1068 17.663 32.9228 18.2237 32.4818 18.5399L16.5 29.9913L31.0849 11.5452L31.0888 11.5452Z" fill="#FCA326"/>
<path d="M31.0925 11.5452H22.5781L26.2361 0.432401C26.3219 0.177712 26.5633 0.00585938 26.8353 0.00585938C27.1073 0.00585938 27.3487 0.177712 27.4346 0.432401L31.0925 11.5452Z" fill="#E24329"/>
</svg>
