<svg width="30" height="30" viewBox="0 0 30 30" fill="none" xmlns="http://www.w3.org/2000/svg">
<path d="M0 4C0 1.79086 1.79086 0 4 0H26C28.2091 0 30 1.79086 30 4V26C30 28.2091 28.2091 30 26 30H4C1.79086 30 0 28.2091 0 26V4Z" fill="#F7DF1E"/>
<path fill-rule="evenodd" clip-rule="evenodd" d="M21.8681 24.9591C20.6464 24.5187 19.2736 23.9444 18.1499 24.5954L17.879 24.7523C17.879 24.7523 17.879 24.7523 17.879 24.7524C17.8789 24.7524 17.8789 24.7525 17.8789 24.7526C18.7031 26.382 20.3917 27.629 23.0048 27.629C25.6784 27.629 27.6685 26.2412 27.6685 23.7064C27.6685 21.3531 26.3217 20.3072 23.9294 19.2812L23.2259 18.9796C22.0198 18.4565 21.4972 18.1144 21.4972 17.2696C21.4972 16.5857 22.0198 16.0627 22.8441 16.0627C23.1872 16.0627 23.479 16.125 23.7383 16.2635C24.3973 16.6156 25.1845 16.9281 25.813 16.5242C26.3916 16.1524 26.5977 15.3718 26.127 14.8703C25.2842 13.9723 24.2108 13.6084 22.8442 13.6084C20.3314 13.6084 18.7232 15.2177 18.7232 17.3299C18.7232 19.623 20.07 20.7093 22.1004 21.574L22.8038 21.876C24.0904 22.4391 24.8543 22.7811 24.8543 23.7466C24.8543 24.5512 24.1107 25.1347 22.9446 25.1347C22.5373 25.1347 22.1821 25.0722 21.8681 24.9591ZM10.9725 24.7254C10.4399 24.2494 9.71381 23.9724 9.1028 24.3424L7.92808 25.0538C7.92795 25.0539 7.9278 25.0538 7.92773 25.0537C8.59113 26.4618 9.89791 27.6285 12.1492 27.6285C14.642 27.6285 16.3506 26.3008 16.3506 23.3841V15.1764C16.3506 14.3993 15.7207 13.7693 14.9435 13.7693C14.1664 13.7693 13.5364 14.3993 13.5364 15.1764V23.3443C13.5364 24.7523 12.9533 25.1142 12.0286 25.1142C11.5717 25.1142 11.241 24.9654 10.9725 24.7254Z" fill="black"/>
</svg>
