<svg width="47" height="38" viewBox="0 0 47 38" fill="none" xmlns="http://www.w3.org/2000/svg">
<rect x="8" y="3" width="32" height="32" rx="3" fill="#1317CE"/>
<g filter="url(#filter0_d_915_1764)">
<path d="M22.6 13.784C22.7493 13.784 22.8667 13.8267 22.952 13.912C23.048 13.9973 23.096 14.104 23.096 14.232C23.096 14.3067 23.08 14.3867 23.048 14.472L18.776 24.68C18.7227 24.7867 18.6533 24.8667 18.568 24.92C18.4827 24.9733 18.3973 25 18.312 25C18.216 25 18.1253 24.9733 18.04 24.92C17.9547 24.8667 17.896 24.792 17.864 24.696L13.608 14.504C13.5973 14.472 13.5867 14.4347 13.576 14.392C13.5653 14.3493 13.56 14.3013 13.56 14.248C13.56 14.1093 13.608 13.9973 13.704 13.912C13.8107 13.8267 13.9173 13.784 14.024 13.784C14.248 13.784 14.408 13.9013 14.504 14.136L18.504 23.704H18.216L22.152 14.104C22.2587 13.8907 22.408 13.784 22.6 13.784ZM25.6886 25C25.5286 25 25.3953 24.952 25.2886 24.856C25.1926 24.76 25.1446 24.648 25.1446 24.52V14.28C25.1446 14.152 25.1926 14.04 25.2886 13.944C25.3846 13.848 25.4966 13.8 25.6246 13.8H29.9446C30.5526 13.8 31.0966 13.9333 31.5766 14.2C32.0566 14.456 32.43 14.8133 32.6966 15.272C32.974 15.7307 33.1126 16.248 33.1126 16.824C33.1126 17.2933 33.0273 17.7253 32.8566 18.12C32.686 18.5147 32.446 18.8507 32.1366 19.128C31.8273 19.3947 31.4806 19.592 31.0966 19.72L30.5366 19.544C30.9313 19.576 31.2993 19.704 31.6406 19.928C31.982 20.1413 32.254 20.44 32.4566 20.824C32.67 21.1973 32.782 21.6507 32.7926 22.184C32.8033 22.6427 32.8246 23 32.8566 23.256C32.8993 23.512 32.958 23.704 33.0326 23.832C33.1073 23.96 33.2033 24.0613 33.3206 24.136C33.4273 24.2 33.4966 24.2907 33.5286 24.408C33.5713 24.5253 33.5606 24.6373 33.4966 24.744C33.454 24.8293 33.39 24.8933 33.3046 24.936C33.23 24.968 33.15 24.984 33.0646 24.984C32.9793 24.984 32.894 24.9627 32.8086 24.92C32.6593 24.8347 32.5046 24.7013 32.3446 24.52C32.1953 24.3387 32.0673 24.072 31.9606 23.72C31.8646 23.368 31.8166 22.8773 31.8166 22.248C31.8166 21.832 31.7473 21.4907 31.6086 21.224C31.4806 20.9573 31.31 20.7547 31.0966 20.616C30.894 20.4667 30.6646 20.3653 30.4086 20.312C30.1633 20.248 29.9286 20.216 29.7046 20.216H25.9766L26.1526 19.992V24.52C26.1526 24.648 26.11 24.76 26.0246 24.856C25.9393 24.952 25.8273 25 25.6886 25ZM25.9766 19.336H29.9926C30.3553 19.304 30.6966 19.1867 31.0166 18.984C31.3366 18.7707 31.5926 18.4827 31.7846 18.12C31.9873 17.7573 32.0886 17.336 32.0886 16.856C32.0886 16.248 31.8806 15.7467 31.4646 15.352C31.0593 14.9467 30.526 14.744 29.8646 14.744H26.0406L26.1526 14.52V19.56L25.9766 19.336Z" fill="white"/>
</g>
<defs>
<filter id="filter0_d_915_1764" x="0.560547" y="0.783936" width="46.0312" height="37.2161" filterUnits="userSpaceOnUse" color-interpolation-filters="sRGB">
<feFlood flood-opacity="0" result="BackgroundImageFix"/>
<feColorMatrix in="SourceAlpha" type="matrix" values="0 0 0 0 0 0 0 0 0 0 0 0 0 0 0 0 0 0 127 0" result="hardAlpha"/>
<feOffset/>
<feGaussianBlur stdDeviation="6.5"/>
<feComposite in2="hardAlpha" operator="out"/>
<feColorMatrix type="matrix" values="0 0 0 0 1 0 0 0 0 0 0 0 0 0 0 0 0 0 0.25 0"/>
<feBlend mode="normal" in2="BackgroundImageFix" result="effect1_dropShadow_915_1764"/>
<feBlend mode="normal" in="SourceGraphic" in2="effect1_dropShadow_915_1764" result="shape"/>
</filter>
</defs>
</svg>
