<svg width="200" height="32" viewBox="0 0 200 32" fill="none" xmlns="http://www.w3.org/2000/svg">
<g clip-path="url(#clip0)">
<path d="M9.18413 2.29385L14.2759 7.70733C14.5677 7.9856 14.9502 8.13587 15.3446 8.12716C15.7389 8.11846 16.1151 7.95144 16.3955 7.66053C16.6759 7.36963 16.8393 6.977 16.8518 6.56357C16.8644 6.15013 16.7252 5.7474 16.4631 5.43835L12.0299 0.653769C11.4419 0.000204712 10.4071 0.592112 9.74857 0.83874C9.09006 1.08537 8.59617 1.67728 9.18413 2.29385Z" fill="#DF1B54"/>
<path d="M26.0815 10.8514C26.3763 11.0522 26.7277 11.1413 27.0773 11.1038C27.427 11.0663 27.754 10.9045 28.0039 10.6453C28.2538 10.3861 28.4117 10.0451 28.4513 9.67882C28.4909 9.31256 28.4099 8.94311 28.2217 8.63179L21.4954 1.57823C20.7188 0.934901 19.7939 0.518025 18.8143 0.369753C18.2494 0.2116 17.6761 0.0880765 17.0975 -0.000189589C16.9636 -0.0423762 16.8201 -0.0361291 16.69 0.0175477C16.5599 0.0712245 16.4508 0.169213 16.3802 0.295764C16.329 0.400571 16.3094 0.519257 16.3241 0.636015C16.3388 0.752773 16.3871 0.862062 16.4625 0.949329L26.0815 10.8514Z" fill="#DF1B54"/>
<path d="M26.3167 25.5752L5.87922 4.14322C5.29126 3.52665 4.7033 4.04456 4.19765 4.52549C3.69201 5.00641 3.02174 5.75863 3.70377 6.41219L24.153 27.8565C24.7292 28.4484 25.3289 27.9798 25.7757 27.5236C26.2226 27.0673 27.0457 26.2904 26.3167 25.5752Z" fill="#DF1B54"/>
<path d="M20.8959 29.7062L15.7925 24.2927C15.5055 23.9918 15.1164 23.8228 14.7106 23.8228C14.3049 23.8228 13.9157 23.9918 13.6288 24.2927C13.3419 24.5936 13.1807 25.0016 13.1807 25.4272C13.1807 25.8527 13.3419 26.2608 13.6288 26.5617L18.0385 31.3462C18.6264 31.9751 19.673 31.3462 20.3197 31.1613C20.9665 30.9763 21.4721 30.3227 20.8959 29.7062Z" fill="#DF1B54"/>
<path d="M3.98627 21.1484C3.69029 20.8912 3.31331 20.7594 2.92935 20.7787C2.54539 20.7981 2.18221 20.9673 1.91113 21.2531C1.64006 21.5389 1.48068 21.9207 1.46429 22.3234C1.44791 22.7262 1.57571 23.1208 1.82258 23.4298L8.58411 30.4217C9.34344 31.0685 10.252 31.4938 11.2182 31.6548C11.7986 31.8119 12.3876 31.9313 12.982 32.0124C13.2643 32.0124 13.5465 32.0124 13.6876 31.7165C13.7384 31.612 13.7556 31.493 13.7365 31.3774C13.7174 31.2618 13.6631 31.1557 13.5818 31.0752L3.98627 21.1484Z" fill="#DF1B54"/>
<path d="M45.0608 14.9335C43.2146 14.4649 41.6153 14.0703 41.6153 12.5782C41.6153 11.0861 43.3675 10.3586 45.0137 10.3586C46.1013 10.3518 47.1822 10.5351 48.2122 10.9011C48.3295 10.9618 48.4578 10.9954 48.5885 10.9998C48.8453 10.9933 49.0894 10.881 49.2677 10.687C49.446 10.4931 49.5442 10.2333 49.541 9.96396C49.5512 9.74473 49.4922 9.5281 49.3731 9.34755C49.2541 9.16701 49.0817 9.03261 48.8825 8.96512C47.5912 8.48705 46.2302 8.24917 44.8609 8.26223C41.1803 8.26223 39.534 10.5065 39.534 12.7262C39.534 15.7474 42.2739 16.4256 44.6962 17.1408C46.4719 17.6218 48.0123 18.0287 48.0123 19.2495C48.0123 20.7663 46.9305 21.5062 44.6845 21.5062C43.3486 21.5089 42.0269 21.2191 40.804 20.6553C40.6662 20.5937 40.5186 20.5602 40.3689 20.5566C40.2387 20.5566 40.1098 20.5839 39.9899 20.6368C39.8699 20.6898 39.7612 20.7674 39.6703 20.8651C39.5793 20.9628 39.5079 21.0785 39.4603 21.2056C39.4127 21.3326 39.3897 21.4683 39.3929 21.6048C39.3972 21.819 39.4606 22.0273 39.5754 22.2045C39.6902 22.3818 39.8514 22.5204 40.0396 22.6037C41.5629 23.2874 43.2039 23.6358 44.8609 23.6272C47.9535 23.6272 50.129 21.8761 50.129 19.3852C50.082 16.1913 47.4126 15.5254 45.0608 14.9335Z" fill="#26235D"/>
<path d="M65.2869 8.37305C65.1469 8.37304 65.0083 8.40215 64.8791 8.45869C64.7499 8.51523 64.6327 8.59809 64.5343 8.70246C64.4359 8.80682 64.3582 8.93063 64.3057 9.0667C64.2532 9.20278 64.227 9.34843 64.2285 9.4952V17.8312C64.1748 18.838 63.7555 19.7851 63.0569 20.4779C62.3582 21.1707 61.4331 21.5568 60.4715 21.5568C59.5099 21.5568 58.5848 21.1707 57.8861 20.4779C57.1874 19.7851 56.7681 18.838 56.7144 17.8312V9.4952C56.7084 9.19956 56.5937 8.91778 56.3944 8.70868C56.195 8.49959 55.9263 8.37934 55.6443 8.37305C55.5044 8.37304 55.3658 8.40215 55.2366 8.45869C55.1074 8.51523 54.9902 8.59809 54.8918 8.70246C54.7934 8.80682 54.7157 8.93063 54.6632 9.0667C54.6107 9.20278 54.5844 9.34843 54.586 9.4952V17.7696C54.5833 18.5659 54.7357 19.3545 55.0341 20.0868C55.3324 20.8192 55.7703 21.4799 56.3208 22.0284C56.8714 22.5769 57.5231 23.0016 58.2358 23.2765C58.9485 23.5514 59.7073 23.6707 60.4656 23.627C61.2243 23.6725 61.9838 23.5545 62.6973 23.2803C63.4108 23.006 64.0631 22.5814 64.6141 22.0325C65.165 21.4836 65.6029 20.8222 65.9006 20.089C66.1983 19.3558 66.3496 18.5665 66.3452 17.7696V9.4952C66.3393 9.20164 66.2263 8.92162 66.0294 8.71285C65.8325 8.50407 65.5667 8.38245 65.2869 8.37305Z" fill="#26235D"/>
<path d="M81.4207 8.47168H71.4724C71.3402 8.47327 71.2095 8.50238 71.0881 8.55732C70.9666 8.61226 70.8567 8.69193 70.7649 8.79173C70.673 8.89152 70.6009 9.00944 70.5528 9.13867C70.5047 9.26789 70.4815 9.40583 70.4847 9.54451C70.4814 9.68146 70.5048 9.81767 70.5533 9.94488C70.6018 10.0721 70.6744 10.1876 70.7668 10.2845C70.8592 10.3814 70.9694 10.4575 71.0907 10.5084C71.212 10.5593 71.3418 10.5837 71.4724 10.5803H75.4V22.4185C75.4 22.7107 75.5099 22.9912 75.7058 23.1989C75.9017 23.4067 76.1679 23.5251 76.4466 23.5283C76.5871 23.53 76.7265 23.5025 76.857 23.4476C76.9874 23.3927 77.1062 23.3115 77.2067 23.2084C77.3071 23.1053 77.3873 22.9825 77.4425 22.847C77.4977 22.7115 77.5269 22.5659 77.5284 22.4185V10.5803H81.4207C81.5524 10.5836 81.6833 10.5593 81.8059 10.5087C81.9285 10.4581 82.0402 10.3823 82.1344 10.2858C82.2286 10.1893 82.3035 10.074 82.3546 9.94669C82.4057 9.81938 82.432 9.68264 82.432 9.54451C82.4335 9.40421 82.4085 9.26498 82.3584 9.13489C82.3083 9.0048 82.234 8.88643 82.14 8.78664C82.0459 8.68685 81.9339 8.60763 81.8104 8.55357C81.687 8.4995 81.5545 8.47167 81.4207 8.47168Z" fill="#26235D"/>
<path d="M97.0369 8.37305C96.8979 8.37466 96.7606 8.40496 96.6328 8.46223C96.505 8.5195 96.3892 8.6026 96.292 8.70681C96.1948 8.81101 96.1181 8.93427 96.0664 9.06954C96.0146 9.20482 95.9888 9.34946 95.9903 9.4952V14.9087H88.7349V9.4952C88.7288 9.19747 88.6125 8.91389 88.4106 8.70446C88.2087 8.49503 87.937 8.37618 87.6531 8.37305C87.5141 8.37466 87.3768 8.40496 87.249 8.46223C87.1211 8.5195 87.0053 8.6026 86.9082 8.70681C86.811 8.81101 86.7343 8.93427 86.6826 9.06954C86.6308 9.20482 86.605 9.34946 86.6065 9.4952V22.4185C86.6065 22.7107 86.7164 22.9912 86.9123 23.199C87.1083 23.4067 87.3744 23.5251 87.6531 23.5283C87.7936 23.53 87.9331 23.5026 88.0635 23.4477C88.1939 23.3928 88.3127 23.3115 88.4132 23.2084C88.5137 23.1054 88.5938 22.9826 88.649 22.847C88.7042 22.7115 88.7334 22.5659 88.7349 22.4185V17.0174H95.9903V22.4185C95.9903 22.7107 96.1002 22.9912 96.2961 23.199C96.4921 23.4067 96.7583 23.5251 97.0369 23.5283C97.1774 23.53 97.3169 23.5026 97.4473 23.4477C97.5777 23.3928 97.6966 23.3115 97.797 23.2084C97.8975 23.1054 97.9776 22.9826 98.0328 22.847C98.088 22.7115 98.1172 22.5659 98.1187 22.4185V9.4952C98.1127 9.19747 97.9964 8.91389 97.7944 8.70446C97.5925 8.49503 97.3209 8.37618 97.0369 8.37305Z" fill="#26235D"/>
<path d="M113.018 10.5804C113.152 10.5888 113.287 10.5682 113.414 10.5199C113.54 10.4717 113.656 10.3967 113.754 10.2997C113.852 10.2026 113.93 10.0856 113.984 9.95569C114.037 9.82582 114.064 9.68589 114.064 9.54451C114.066 9.40421 114.041 9.26498 113.991 9.13489C113.94 9.0048 113.866 8.88643 113.772 8.78664C113.678 8.68685 113.566 8.60763 113.443 8.55357C113.319 8.4995 113.187 8.47167 113.053 8.47168H105.01C104.869 8.47329 104.73 8.50391 104.601 8.5618C104.472 8.61969 104.355 8.7037 104.256 8.80905C104.158 8.9144 104.081 9.03902 104.028 9.17579C103.976 9.31256 103.95 9.4588 103.951 9.60617V22.3075C103.951 22.6019 104.063 22.8842 104.261 23.0923C104.46 23.3004 104.729 23.4173 105.01 23.4173H113.018C113.159 23.4334 113.302 23.4181 113.437 23.3724C113.572 23.3267 113.696 23.2517 113.802 23.1522C113.908 23.0528 113.992 22.9311 114.05 22.7951C114.108 22.6591 114.138 22.5119 114.138 22.363C114.138 22.2141 114.108 22.0669 114.05 21.9309C113.992 21.7949 113.908 21.6732 113.802 21.5738C113.696 21.4743 113.572 21.3993 113.437 21.3536C113.302 21.308 113.159 21.2926 113.018 21.3087H106.08V16.9927H112.288C112.43 17.0087 112.572 16.9934 112.708 16.9477C112.843 16.902 112.967 16.827 113.073 16.7276C113.179 16.6281 113.263 16.5064 113.321 16.3705C113.379 16.2345 113.409 16.0872 113.409 15.9383C113.409 15.7894 113.379 15.6422 113.321 15.5062C113.263 15.3703 113.179 15.2486 113.073 15.1491C112.967 15.0497 112.843 14.9747 112.708 14.929C112.572 14.8833 112.43 14.868 112.288 14.884H106.08V10.5804H113.018Z" fill="#26235D"/>
<path d="M130.01 12.8863C130.01 10.0871 127.975 8.47168 124.424 8.47168H119.72C119.58 8.47329 119.441 8.50391 119.312 8.5618C119.183 8.61969 119.066 8.7037 118.967 8.80905C118.869 8.9144 118.791 9.03902 118.739 9.17579C118.687 9.31256 118.661 9.4588 118.662 9.60617V22.4185C118.69 22.6943 118.814 22.9495 119.01 23.135C119.207 23.3205 119.462 23.4232 119.726 23.4232C119.991 23.4232 120.246 23.3205 120.442 23.135C120.639 22.9495 120.763 22.6943 120.791 22.4185V17.7202H124.765C127.376 17.7202 127.705 19.8906 127.705 21.7896V22.4185C127.7 22.5678 127.724 22.7166 127.777 22.8553C127.83 22.9941 127.91 23.1197 128.012 23.2242C128.114 23.3287 128.235 23.4097 128.369 23.4621C128.502 23.5144 128.645 23.537 128.787 23.5283C129.065 23.5251 129.332 23.4067 129.528 23.1989C129.724 22.9912 129.833 22.7107 129.833 22.4185V21.4566C129.833 20.5195 129.669 17.5723 127.634 16.6721C128.345 16.3605 128.95 15.8338 129.373 15.1594C129.796 14.485 130.018 13.6936 130.01 12.8863ZM127.881 13.0343C127.881 14.6374 126.553 15.5992 124.354 15.5992H120.896V10.605H124.26C127.47 10.605 127.881 11.8998 127.881 13.0343Z" fill="#26235D"/>
<path d="M143.814 21.1852H137.441V9.495C137.457 9.33859 137.441 9.18047 137.394 9.03089C137.348 8.88131 137.272 8.74361 137.172 8.62672C137.072 8.50984 136.949 8.41638 136.812 8.3524C136.675 8.28843 136.527 8.25537 136.377 8.25537C136.227 8.25537 136.078 8.28843 135.941 8.3524C135.804 8.41638 135.682 8.50984 135.581 8.62672C135.481 8.74361 135.405 8.88131 135.359 9.03089C135.313 9.18047 135.297 9.33859 135.313 9.495V21.9374C135.316 22.331 135.467 22.7073 135.733 22.9845C136 23.2617 136.36 23.4172 136.735 23.4172H143.791C143.931 23.4188 144.071 23.3914 144.201 23.3365C144.332 23.2816 144.451 23.2003 144.551 23.0972C144.651 22.9942 144.732 22.8714 144.787 22.7358C144.842 22.6003 144.871 22.4547 144.873 22.3073C144.867 22.0138 144.754 21.7337 144.557 21.525C144.36 21.3162 144.094 21.1946 143.814 21.1852Z" fill="#26235D"/>
<path d="M156.397 9.3349C156.298 9.0552 156.12 8.81364 155.887 8.64198C155.654 8.47031 155.377 8.37656 155.092 8.37305H154.892C154.608 8.37824 154.332 8.47265 154.099 8.6441C153.866 8.81554 153.688 9.05615 153.587 9.3349L148.507 21.9376C148.434 22.0865 148.393 22.251 148.389 22.4185C148.384 22.5657 148.408 22.7123 148.46 22.8493C148.511 22.9863 148.589 23.1107 148.688 23.2148C148.788 23.3189 148.906 23.4005 149.037 23.4544C149.167 23.5083 149.307 23.5335 149.448 23.5283C149.661 23.5292 149.869 23.4641 150.047 23.3412C150.225 23.2184 150.364 23.0433 150.447 22.8378L151.694 19.7303H158.267L159.525 22.8994C159.611 23.1059 159.752 23.2815 159.932 23.4042C160.112 23.527 160.322 23.5916 160.537 23.59C160.676 23.5953 160.816 23.5701 160.946 23.516C161.076 23.462 161.194 23.3802 161.292 23.2759C161.39 23.1716 161.467 23.047 161.517 22.91C161.567 22.7731 161.59 22.6267 161.583 22.4802C161.579 22.314 161.543 22.1504 161.477 21.9993L156.397 9.3349ZM157.456 17.6093H152.529L154.998 11.4436L157.456 17.6093Z" fill="#26235D"/>
<path d="M177.281 8.37302C177.142 8.37463 177.005 8.40494 176.877 8.4622C176.749 8.51947 176.634 8.60258 176.536 8.70678C176.439 8.81099 176.363 8.93424 176.311 9.06952C176.259 9.20479 176.233 9.34943 176.235 9.49518V20.2852L168.827 9.06358C168.692 8.86382 168.517 8.69814 168.313 8.57866C168.11 8.45917 167.883 8.38891 167.651 8.37302H167.392C167.004 8.36305 166.628 8.51432 166.346 8.79383C166.064 9.07335 165.899 9.45844 165.887 9.86512V22.4185C165.914 22.6942 166.038 22.9495 166.235 23.135C166.431 23.3205 166.687 23.4232 166.951 23.4232C167.215 23.4232 167.47 23.3205 167.667 23.135C167.863 22.9495 167.987 22.6942 168.015 22.4185V11.6162L175.459 22.8871C175.594 23.0817 175.771 23.2408 175.975 23.352C176.179 23.4632 176.405 23.5236 176.635 23.5283H176.87C177.063 23.5299 177.254 23.4917 177.433 23.4157C177.612 23.3398 177.775 23.2276 177.913 23.0856C178.05 22.9436 178.16 22.7746 178.235 22.5882C178.31 22.4018 178.35 22.2017 178.351 21.9992V9.49518C178.345 9.19954 178.231 8.91776 178.031 8.70866C177.832 8.49956 177.563 8.37931 177.281 8.37302Z" fill="#26235D"/>
<path d="M194.696 10.8639C194.015 10.086 193.183 9.47012 192.256 9.05749C191.329 8.64486 190.329 8.44507 189.322 8.47157H185.312C185.172 8.47318 185.033 8.5038 184.904 8.56169C184.774 8.61957 184.657 8.70359 184.559 8.80894C184.461 8.91429 184.383 9.03891 184.331 9.17568C184.279 9.31245 184.252 9.45869 184.254 9.60606V22.3074C184.254 22.6018 184.365 22.884 184.564 23.0922C184.762 23.3003 185.032 23.4172 185.312 23.4172H189.322C190.339 23.4526 191.35 23.2572 192.288 22.8443C193.226 22.4314 194.067 21.8107 194.755 21.0249C195.9 19.6046 196.529 17.8046 196.529 15.9444C196.529 14.0842 195.9 12.2842 194.755 10.8639H194.696ZM194.355 15.9444C194.382 16.6745 194.261 17.4022 194.001 18.0799C193.741 18.7576 193.347 19.3699 192.845 19.8765C192.343 20.3831 191.744 20.7726 191.088 21.0194C190.433 21.2662 189.735 21.3648 189.04 21.3086H186.324V10.5802H189.04C189.735 10.524 190.433 10.6226 191.088 10.8694C191.744 11.1162 192.343 11.5057 192.845 12.0123C193.347 12.5189 193.741 13.1312 194.001 13.8089C194.261 14.4866 194.382 15.2143 194.355 15.9444Z" fill="#26235D"/>
<path d="M19.2265 9.12514C18.6201 9.06962 18.0102 9.06962 17.4038 9.12514C17.2545 9.12567 17.1086 9.17132 16.9835 9.25662C16.8583 9.34192 16.7593 9.46324 16.6982 9.60606C16.6413 9.75385 16.6277 9.91609 16.6591 10.072C16.6905 10.228 16.7656 10.3706 16.8746 10.4816L28.2222 21.9375C28.2974 22.0193 28.3895 22.0819 28.4915 22.1204C28.5935 22.1589 28.7025 22.1723 28.8102 22.1594C28.9557 22.1602 29.0975 22.1113 29.2142 22.0201C29.3309 21.9289 29.4161 21.8003 29.4569 21.6538C29.6595 21.072 29.8322 20.4793 29.9744 19.8781C30.0175 19.7051 30.0197 19.5237 29.9808 19.3496C29.9419 19.1756 29.8629 19.0141 29.7509 18.8793L29.6686 18.793L20.5082 9.72938C20.1624 9.37559 19.7083 9.16155 19.2265 9.12514Z" fill="#26235D"/>
<path d="M10.7246 22.8623C11.3307 22.9242 11.9411 22.9242 12.5472 22.8623C12.6955 22.8644 12.8411 22.8212 12.9664 22.738C13.0917 22.6548 13.1912 22.5352 13.2528 22.3937C13.3113 22.2462 13.3258 22.0835 13.2943 21.9272C13.2629 21.7709 13.1869 21.6282 13.0764 21.5182L1.78758 10.05C1.70768 9.96934 1.61023 9.91035 1.50368 9.87812C1.39713 9.84589 1.28469 9.84139 1.17611 9.86501C1.03058 9.86423 0.888759 9.91314 0.77208 10.0043C0.655401 10.0956 0.5702 10.2241 0.529351 10.3706C0.325606 10.9406 0.149 11.5209 0.000188455 12.1093C-0.0414013 12.2853 -0.0417317 12.4691 -0.000774352 12.6452C0.040183 12.8213 0.121209 12.9844 0.235372 13.1205L0.305927 13.2068L9.40753 22.2704C9.76355 22.6287 10.2316 22.839 10.7246 22.8623Z" fill="#26235D"/>
<path d="M197.625 11.2955V9.32244H198.378C198.533 9.31871 198.684 9.37588 198.801 9.48275C198.856 9.54118 198.898 9.61067 198.927 9.68698C198.955 9.76329 198.968 9.84484 198.966 9.92668C198.977 10.0043 198.977 10.0833 198.966 10.161C198.936 10.2252 198.896 10.2836 198.848 10.3336C198.807 10.3843 198.755 10.4226 198.695 10.4446C198.633 10.4572 198.569 10.4572 198.507 10.4446L199.024 11.2461H198.73L198.26 10.4693H197.884V11.2461L197.625 11.2955ZM197.86 10.2966H198.342C198.445 10.3006 198.545 10.2656 198.625 10.198C198.659 10.1632 198.687 10.121 198.705 10.0742C198.723 10.0275 198.732 9.97717 198.73 9.92668C198.734 9.87599 198.726 9.82518 198.707 9.77816C198.689 9.73114 198.661 9.68914 198.625 9.65538C198.587 9.61749 198.543 9.58807 198.494 9.56897C198.446 9.54987 198.394 9.5415 198.342 9.5444H197.86V10.2966Z" fill="#26235D"/>
<path d="M198.237 12.1835C197.884 12.186 197.539 12.0785 197.246 11.8748C196.952 11.6712 196.722 11.3805 196.587 11.0398C196.451 10.699 196.415 10.3236 196.483 9.96126C196.551 9.59892 196.72 9.266 196.969 9.00485C197.218 8.7437 197.536 8.56611 197.881 8.49466C198.227 8.4232 198.585 8.46111 198.91 8.60357C199.235 8.74603 199.512 8.9866 199.706 9.2947C199.9 9.60279 200.003 9.96449 200 10.3338C200 10.8244 199.815 11.2949 199.484 11.6417C199.153 11.9886 198.704 12.1835 198.237 12.1835ZM198.237 8.71839C197.931 8.71595 197.632 8.80861 197.378 8.98462C197.123 9.16064 196.923 9.41207 196.805 9.70702C196.687 10.002 196.654 10.3272 196.713 10.6413C196.771 10.9555 196.916 11.2445 197.131 11.4716C197.346 11.6988 197.621 11.8539 197.92 11.9172C198.219 11.9806 198.529 11.9493 198.812 11.8274C199.094 11.7055 199.335 11.4985 199.505 11.2326C199.675 10.9666 199.765 10.6538 199.765 10.3338C199.765 9.9075 199.605 9.49847 199.318 9.19587C199.032 8.89328 198.643 8.72165 198.237 8.71839Z" fill="#26235D"/>
</g>
<defs>
<clipPath id="clip0">
<rect width="200" height="32" fill="white"/>
</clipPath>
</defs>
</svg>
