<svg width="14" height="14" viewBox="0 0 14 14" fill="none" xmlns="http://www.w3.org/2000/svg">
<path d="M5.83322 12.4095C5.83321 12.3162 5.81111 12.224 5.7685 12.1395C5.72589 12.0551 5.66381 11.9803 5.58666 11.9206C5.50951 11.8609 5.41918 11.8177 5.32206 11.7941C5.22494 11.7705 5.12342 11.767 5.02469 11.7839C4.12858 11.9367 2.99717 11.9597 2.69635 11.1744C2.43404 10.5662 1.99955 10.0353 1.43893 9.63797C1.39893 9.61775 1.3608 9.59448 1.32495 9.56839C1.27589 9.4481 1.18874 9.34446 1.075 9.27115C0.96127 9.19783 0.826293 9.15828 0.687881 9.15772H0.68454C0.503549 9.15766 0.329904 9.22424 0.201612 9.34289C0.0733192 9.46154 0.000829761 9.6226 9.59777e-06 9.79081C-0.00266692 10.3096 0.555164 10.642 0.78147 10.7544C1.04833 11.0036 1.2628 11.2969 1.41386 11.6192C1.66321 12.2703 2.38784 13.2582 4.47085 13.1308C4.47153 13.1532 4.47218 13.1743 4.47252 13.1936L4.47552 13.3638C4.47552 13.5325 4.54764 13.6944 4.67602 13.8137C4.80439 13.933 4.97851 14 5.16005 14C5.3416 14 5.51572 13.933 5.64409 13.8137C5.77247 13.6944 5.84459 13.5325 5.84459 13.3638L5.84125 13.1613C5.8379 13.0407 5.83322 12.8661 5.83322 12.4095ZM13.1351 2.78644C13.1568 2.70691 13.1782 2.61869 13.1969 2.51929C13.3077 1.81031 13.2111 1.0867 12.9175 0.424307C12.8805 0.337952 12.8235 0.260174 12.7507 0.196425C12.6779 0.132676 12.591 0.0844987 12.496 0.055271C12.2523 -0.0211484 11.3526 -0.1715 9.63191 0.850511C8.20161 0.537692 6.7127 0.537692 5.2824 0.850511C3.56873 -0.15653 2.67362 -0.019876 2.4323 0.0521919C2.335 0.0802355 2.24569 0.128157 2.17091 0.192445C2.09613 0.256734 2.03777 0.335758 2.00012 0.423728C1.7005 1.09884 1.60504 1.8372 1.72403 2.55907C1.74075 2.64046 1.75879 2.71564 1.77752 2.78459C1.21043 3.48659 0.908375 4.34286 0.918177 5.22064C0.916329 5.41648 0.926037 5.61227 0.947256 5.80712C1.17589 8.73522 3.22948 9.61434 4.66036 9.91629C4.63062 9.99581 4.60354 10.0809 4.57948 10.171C4.53658 10.3347 4.56529 10.5075 4.65929 10.6516C4.7533 10.7956 4.90493 10.8991 5.08094 10.9394C5.25696 10.9797 5.44298 10.9535 5.59823 10.8665C5.75347 10.7796 5.86527 10.6389 5.9091 10.4754C5.95265 10.2635 6.06429 10.0687 6.2293 9.91691C6.32908 9.83572 6.40132 9.72934 6.43723 9.6107C6.47315 9.49206 6.47119 9.36628 6.4316 9.24866C6.39201 9.13103 6.31649 9.02664 6.21424 8.94817C6.11198 8.8697 5.98739 8.82054 5.85562 8.80667C3.49118 8.55568 2.46472 7.66041 2.3103 5.69033C2.29319 5.53429 2.2855 5.37748 2.28724 5.22064C2.27626 4.59505 2.49864 3.98521 2.91662 3.49472C2.95861 3.44359 3.00335 3.39444 3.05065 3.34748C3.13446 3.26032 3.1908 3.15339 3.21351 3.03842C3.23621 2.92345 3.22439 2.80489 3.17934 2.69576C3.13316 2.58094 3.0976 2.46267 3.07305 2.34224C3.01728 1.99979 3.03558 1.65044 3.12686 1.31464C3.7218 1.47081 4.28174 1.72501 4.78 2.06514C4.86239 2.11615 4.95563 2.15009 5.05338 2.16467C5.15113 2.17925 5.25111 2.17412 5.34654 2.14964C6.73005 1.80069 8.18866 1.80091 9.57205 2.15028C9.66799 2.17473 9.76851 2.17957 9.86666 2.16444C9.96481 2.14932 10.0583 2.1146 10.1406 2.06268C10.6365 1.72113 11.1941 1.46466 11.7871 1.30534C11.878 1.63307 11.8983 1.97427 11.8469 2.30933C11.8221 2.44136 11.7834 2.5708 11.7313 2.69577C11.6862 2.8049 11.6744 2.92346 11.6971 3.03843C11.7198 3.1534 11.7761 3.26033 11.8599 3.34749C11.9128 3.40278 11.9656 3.46242 12.013 3.51834C12.428 4.00052 12.6467 4.60335 12.6304 5.22064C12.6316 5.3858 12.623 5.5509 12.6047 5.71517C12.4539 7.65916 11.4234 8.55505 9.04798 8.80667C8.91617 8.82062 8.79157 8.86986 8.68933 8.9484C8.58708 9.02695 8.51159 9.13141 8.47204 9.24909C8.43249 9.36677 8.43058 9.49259 8.46654 9.61126C8.50251 9.72993 8.5748 9.83633 8.67463 9.91752C8.84482 10.0734 8.95671 10.2759 8.99383 10.4953C9.04009 10.6656 9.06134 10.841 9.057 11.0166V12.5014C9.0503 12.9133 9.0503 13.2221 9.0503 13.3638C9.0503 13.5325 9.12242 13.6943 9.2508 13.8136C9.37917 13.9329 9.55329 14 9.73483 14C9.91638 14 10.0905 13.9329 10.2189 13.8136C10.3472 13.6943 10.4194 13.5325 10.4194 13.3638C10.4194 13.2258 10.4194 12.9233 10.4261 12.5114V11.0166C10.4316 10.7353 10.3959 10.4546 10.3201 10.1822C10.2984 10.0928 10.2719 10.0044 10.2405 9.91753C11.2819 9.75675 12.2281 9.25777 12.9106 8.50939C13.5932 7.76101 13.9679 6.81181 13.968 5.83074C13.9906 5.62806 14.0011 5.42439 13.9995 5.22064C14.0147 4.34191 13.7101 3.48417 13.1351 2.78645L13.1351 2.78644Z" fill="#5F6A85"/>
</svg>
