<svg width="30" height="30" viewBox="0 0 30 30" fill="none" xmlns="http://www.w3.org/2000/svg">
<rect width="30" height="30" rx="4" fill="#1D1C1C"/>
<path d="M8 8.35196C8 6.50168 9.5242 5 11.4022 5H14.8045V11.7039H11.4022C9.5242 11.7039 8 10.2022 8 8.35196Z" fill="#E15A33"/>
<path d="M21.6094 8.35196C21.6094 6.50168 20.0852 5 18.2071 5H14.8049V11.7039H18.2071C20.0852 11.7039 21.6094 10.2022 21.6094 8.35196Z" fill="#EE7A69"/>
<path d="M8 15.0561C8 13.2058 9.5242 11.7041 11.4022 11.7041H14.8045V18.408H11.4022C9.5242 18.408 8 16.9063 8 15.0561Z" fill="#9763F6"/>
<ellipse cx="18.1566" cy="15.0561" rx="3.35195" ry="3.35195" fill="#55BBF8"/>
<path d="M11.4022 18.4077H14.8045V21.7596C14.8045 23.6099 13.2803 25.1116 11.4022 25.1116C9.5242 25.1116 8 23.6099 8 21.7596C8 19.9094 9.5242 18.4077 11.4022 18.4077Z" fill="#5ECB89"/>
</svg>
