<svg width="26" height="30" viewBox="0 0 26 30" fill="none" xmlns="http://www.w3.org/2000/svg">
<path d="M2.36364 26.9531L0 0H26L23.6364 26.9531L12.9712 30" fill="#E34F26"/>
<path d="M13.0283 27.6563L21.6181 25.2539L23.6359 2.16797H13.0283" fill="#EF652A"/>
<path fill-rule="evenodd" clip-rule="evenodd" d="M8.70725 12.1875H13.031V15.5273H5.70947L4.90238 6.38672L4.84473 5.50781H12.9733H13.031V8.78906H8.41901L8.70725 12.1875ZM12.9737 20.8008H13.0314V24.2578H12.9737L6.28636 22.3828L5.88281 17.168H7.3817H9.11119L9.34179 19.8047L12.9737 20.8008Z" fill="#EBEBEB"/>
<path fill-rule="evenodd" clip-rule="evenodd" d="M12.9717 7.55859V5.50781H21.1579L21.1003 6.38672L20.9273 8.08594L20.8697 8.78906H12.9717V7.55859ZM12.9717 15.5273V12.1875H19.659H20.5814L20.4661 13.0664L19.7167 21.7969L19.659 22.3828L12.9717 24.2578V20.8008L16.6036 19.8047L17.0072 15.5273H12.9717Z" fill="white"/>
</svg>
