<svg width="32" height="30" viewBox="0 0 32 30" fill="none" xmlns="http://www.w3.org/2000/svg">
<path d="M0 14.9461C0 17.466 2.35985 19.8184 6.08016 21.1444C5.33723 25.0443 5.9471 28.1877 7.98384 29.4125C10.0773 30.6715 13.1962 29.8 16.1565 27.1017C19.042 29.691 21.9583 30.71 23.9933 29.4817C26.0848 28.2192 26.7209 24.8627 25.9574 20.8409C29.8325 19.5051 32 17.4992 32 14.9461C32 12.4846 29.6359 10.3552 25.9656 9.0377C26.7875 4.84982 26.0911 1.78272 23.97 0.507328C21.9251 -0.722294 18.9749 0.349429 16.0469 3.00644C13.0007 0.186284 10.0797 -0.674688 7.96082 0.604245C5.91779 1.83741 5.33484 5.03802 6.08016 9.01003C2.48537 10.3169 0 12.4946 0 14.9461Z" fill="white"/>
<path d="M25.1933 10.3316C24.8908 10.2235 24.5857 10.1234 24.2784 10.0313C24.3294 9.81556 24.3765 9.59886 24.4198 9.38131C25.1123 5.87943 24.6595 3.05832 23.1132 2.12965C21.6307 1.23898 19.2059 2.16765 16.757 4.38751C16.5157 4.60675 16.2798 4.8323 16.0494 5.06396C15.8952 4.90992 15.7382 4.75887 15.5785 4.6109C13.012 2.23709 10.4395 1.23688 8.89485 2.1683C7.41369 3.06146 6.97498 5.71369 7.59846 9.03241C7.66049 9.36106 7.73053 9.68801 7.80851 10.013C7.44451 10.1207 7.09296 10.2354 6.75663 10.3575C3.74779 11.4502 1.82617 13.1629 1.82617 14.9393C1.82617 16.7741 3.88892 18.6144 7.02303 19.7301C7.27716 19.8202 7.53341 19.9036 7.79153 19.9804C7.70767 20.3305 7.63323 20.6829 7.56827 21.0373C6.97385 24.2984 7.43809 26.8877 8.91535 27.7754C10.4411 28.6919 13.002 27.7498 15.4956 25.4793C15.6927 25.2998 15.8906 25.1094 16.0887 24.9099C16.3382 25.1606 16.5944 25.4041 16.8569 25.64C19.2723 27.8051 21.6578 28.6794 23.1338 27.7894C24.6582 26.8702 25.1535 24.0885 24.5103 20.7041C24.4613 20.4456 24.404 20.1816 24.3399 19.9128C24.5198 19.8575 24.6962 19.8004 24.8684 19.7409C28.1265 18.6165 30.2463 16.7986 30.2463 14.9393C30.2463 13.1565 28.2628 11.4323 25.1933 10.3316Z" fill="#53C1DE"/>
<path fill-rule="evenodd" clip-rule="evenodd" d="M23.1995 9.15891C23.7978 6.13385 23.4274 3.82715 22.4752 3.25509C21.5811 2.71803 19.6188 3.46942 17.5192 5.37251C17.2963 5.57509 17.0782 5.7834 16.8652 5.99726C17.678 6.90935 18.4877 7.96315 19.2692 9.12207C20.6106 9.25316 21.8918 9.4642 23.0716 9.74774C23.1176 9.55228 23.1603 9.35597 23.1995 9.15891ZM9.4626 3.29302C8.56937 3.83151 8.21445 5.97751 8.74897 8.82245V8.82232C8.80675 9.12819 8.87193 9.43249 8.94443 9.73494C10.1215 9.45717 11.4018 9.24979 12.7393 9.12067C13.5193 7.9742 14.3358 6.92224 15.1619 5.99822C15.0193 5.85626 14.8769 5.71901 14.7352 5.58793C12.5178 3.53736 10.4141 2.71939 9.4626 3.29302ZM7.3745 18.5713C5.98778 18.0776 4.84258 17.4361 4.05759 16.7361C3.35228 16.1069 2.99609 15.4823 2.99609 14.9754C2.99609 13.8969 4.54001 12.5212 7.11497 11.5861C7.43817 11.4693 7.76458 11.3623 8.09378 11.2654C8.44971 12.471 8.91653 13.7315 9.47988 15.0062C8.90923 16.2998 8.43574 17.5804 8.07654 18.8002C7.84076 18.7299 7.60668 18.6536 7.3745 18.5713ZM24.4558 18.5781C24.3004 18.6317 24.1408 18.6835 23.9782 18.7337C23.6182 17.5469 23.1324 16.285 22.5381 14.9813C23.1053 13.7085 23.5723 12.4628 23.9222 11.2837C24.213 11.3715 24.4955 11.4639 24.7676 11.5616C27.3993 12.505 29.0045 13.9002 29.0045 14.9751C29.0045 16.1201 27.2708 17.6066 24.4559 18.5781H24.4558ZM23.2883 20.989C23.5729 22.4862 23.6135 23.8399 23.425 24.8982C23.2556 25.8491 22.915 26.483 22.4939 26.7369C21.5976 27.2773 19.6809 26.5749 17.6141 24.7224C17.3771 24.5101 17.1383 24.2833 16.8989 24.0434C17.7003 23.1305 18.5011 22.0692 19.2827 20.8908C20.6576 20.7638 21.9565 20.556 23.1344 20.2725C23.1923 20.5163 23.2439 20.7552 23.2883 20.989ZM9.48159 26.7212C9.90309 26.9744 10.6005 26.9652 11.4761 26.6431H11.4762C12.4506 26.2846 13.5563 25.572 14.6597 24.5674C14.8444 24.3988 15.025 24.2256 15.2015 24.0478C14.3711 23.1195 13.5471 22.0596 12.7604 20.9064C11.3822 20.79 10.0928 20.5969 8.92793 20.3286C8.84999 20.6544 8.78074 20.9823 8.72026 21.312C8.21166 24.1022 8.58446 26.1825 9.48159 26.7212ZM21.0161 11.9774C20.7381 11.4772 20.4498 10.9833 20.1514 10.4961C21.0588 10.6154 21.9281 10.774 22.7445 10.9681C22.4994 11.7862 22.1939 12.6417 21.8342 13.5187C21.5714 12.9993 21.2987 12.4854 21.0161 11.9774ZM17.6874 9.00652C17.1354 8.24059 16.5742 7.53457 16.0138 6.90234C15.4447 7.54191 14.8787 8.24688 14.3262 9.00574C15.446 8.95115 16.5676 8.95141 17.6874 9.00652ZM10.9794 11.9857C10.7004 12.4897 10.4327 13.0004 10.1766 13.5174C9.82283 12.6435 9.52014 11.7842 9.27295 10.9544C10.0844 10.7653 10.9497 10.6107 11.8512 10.4934C11.5494 10.9837 11.2587 11.4812 10.9794 11.9857ZM9.25586 19.1083C10.067 19.2922 10.9454 19.4389 11.8768 19.5472C11.5676 19.0476 11.2699 18.5404 10.9839 18.0261C10.7037 17.5218 10.4348 17.0108 10.1777 16.4934C9.81631 17.3861 9.50695 18.2638 9.25586 19.1083ZM16.0475 23.1375C15.4717 22.4903 14.8974 21.7746 14.3364 21.0047C14.8809 21.027 15.4361 21.0383 16.0003 21.0383C16.58 21.0383 17.153 21.0248 17.717 20.9985C17.1632 21.7824 16.604 22.4992 16.0475 23.1375ZM22.8008 19.0536C22.5463 18.2234 22.2259 17.3504 21.8458 16.448C21.5821 16.9774 21.3071 17.5007 21.021 18.0174C20.7396 18.5257 20.4485 19.0282 20.1479 19.5246C21.086 19.4074 21.9762 19.2496 22.8008 19.0536ZM19.9689 17.385C19.5381 18.1644 19.0831 18.9291 18.6045 19.6777C17.7608 19.7405 16.8888 19.7729 16.0003 19.7729C15.1153 19.7729 14.2545 19.7441 13.4254 19.6882C12.9345 18.9413 12.4709 18.1753 12.0356 17.392C11.6023 16.6127 11.1975 15.8166 10.8223 15.0054C11.1966 14.194 11.6001 13.3974 12.0319 12.6176V12.6178C12.4636 11.8378 12.9236 11.0751 13.4108 10.3314C14.2566 10.2648 15.1238 10.23 16.0004 10.23C16.8809 10.23 17.7492 10.2651 18.5947 10.3322C19.0771 11.0748 19.5341 11.8348 19.965 12.6109C20.3983 13.389 20.8071 14.1816 21.191 14.9875C20.8111 15.8015 20.4035 16.6012 19.969 17.385H19.9689Z" fill="white"/>
<path d="M16.0362 12.3447C17.4283 12.3447 18.5567 13.5337 18.5567 15.0002C18.5567 16.4668 17.4283 17.6557 16.0362 17.6557C14.6442 17.6557 13.5156 16.4668 13.5156 15.0002C13.5156 13.5337 14.6442 12.3447 16.0362 12.3447" fill="#53C1DE"/>
</svg>
