<svg width="32" height="30" viewBox="0 0 32 30" fill="none" xmlns="http://www.w3.org/2000/svg">
<path fill-rule="evenodd" clip-rule="evenodd" d="M27.5471 17.2268C26.4283 17.2347 25.4595 17.5708 24.6469 18.0712C24.5944 17.9414 24.542 17.8144 24.4908 17.6906L24.4907 17.6903L24.4905 17.6897C24.2494 17.1061 24.0381 16.5947 23.9969 16.195C23.9871 16.0968 23.9769 16.0052 23.9671 15.9173L23.9671 15.9171L23.9671 15.917L23.967 15.9169C23.9208 15.5018 23.8839 15.1706 23.9406 14.6158C23.9887 14.1456 24.1559 13.5378 24.2522 13.1881C24.2936 13.0377 24.3219 12.935 24.3219 12.9115C24.3155 12.8412 24.253 12.4972 23.6093 12.4894C22.9655 12.4816 22.4092 12.6457 22.3467 12.8568C22.2842 13.0679 22.1592 13.5526 22.0779 14.0529C21.9654 14.7877 20.7903 17.391 20.1215 18.7591C19.9027 18.2275 19.7152 17.7584 19.6776 17.3831C19.6678 17.2845 19.6576 17.1927 19.6478 17.1046V17.1046C19.6016 16.6897 19.5647 16.3585 19.6214 15.804C19.6695 15.3339 19.8368 14.7262 19.9331 14.3764L19.9331 14.3764L19.9331 14.3763C19.9745 14.226 20.0027 14.1233 20.0027 14.0998C19.9965 14.0294 19.934 13.6855 19.2902 13.6776C18.6464 13.6698 18.0901 13.834 18.0276 14.0451C18.0018 14.1324 17.9748 14.2692 17.9424 14.4339C17.8965 14.6674 17.8395 14.957 17.7588 15.2412C17.6377 15.6882 16.299 19.4204 15.773 20.8869L15.6586 21.206C15.4523 21.7845 15.2711 22.2458 15.1398 22.5585C15.0481 22.7769 15.0815 22.7016 15.1057 22.647L15.1057 22.647L15.1057 22.6468L15.1058 22.6466C15.1162 22.6232 15.1248 22.6038 15.121 22.6132C15.0085 22.879 14.946 23.0275 14.946 23.0275V23.0354C14.8585 23.2308 14.7648 23.4184 14.721 23.4184C14.6897 23.4184 14.6272 22.8946 14.7335 22.1755C14.8871 21.1729 15.187 19.7977 15.3692 18.9624C15.4612 18.5406 15.5232 18.2564 15.5211 18.2276C15.5211 18.226 15.5213 18.2238 15.5216 18.2211L15.5233 18.2074C15.5359 18.1132 15.5837 17.7545 15.1585 17.5631C14.7908 17.393 14.6139 17.5884 14.5394 17.6707C14.5215 17.6905 14.5095 17.7038 14.5022 17.7038C14.4647 17.7038 14.4334 17.8289 14.4334 17.8289C14.4334 17.8289 14.9397 15.1788 13.4646 15.1788C12.5395 15.1788 11.2644 16.4374 10.6331 17.5866C10.5114 17.6699 10.348 17.7814 10.1542 17.9136C9.71109 18.2159 9.1091 18.6266 8.48291 19.0563C8.34539 19.1501 8.20587 19.2465 8.06635 19.3428L8.06597 19.343C7.85684 19.4874 7.64771 19.6318 7.44532 19.7677L7.37662 19.6738C6.82474 18.9377 6.1281 18.2679 5.43272 17.5993L5.43271 17.5993C3.87562 16.1022 2.32488 14.6113 2.41994 12.3956C2.46994 11.2307 2.79497 8.15841 8.77056 4.43723C13.6647 1.38836 17.5838 2.22484 18.2651 4.08544C19.2339 6.74343 16.1711 11.6842 11.0833 12.3956C9.14559 12.6692 8.12669 11.7311 7.87048 11.3793C7.60171 11.0118 7.5642 10.9962 7.46419 11.0666C7.30168 11.176 7.40169 11.5044 7.46419 11.6998C7.61421 12.1923 8.23926 13.0679 9.30185 13.5057C10.2331 13.8887 12.5084 14.0998 15.2586 12.7708C18.3401 11.2776 20.7466 7.13431 20.0403 3.6711C19.3215 0.14536 14.6461 -1.01165 10.2269 0.950574C7.59539 2.12322 4.74514 3.95254 2.69496 6.35254C0.257252 9.19816 -0.130282 11.6842 0.0322319 12.7161C0.455907 15.4584 2.81417 17.4896 4.66172 19.0809L4.66174 19.0809L4.6618 19.081L4.66191 19.0811C5.29496 19.6263 5.86804 20.1199 6.28278 20.5728C6.23623 20.6041 6.19173 20.6354 6.14928 20.6653C6.11763 20.6876 6.08712 20.7091 6.05776 20.7291C5.24519 21.2294 2.15117 23.2542 1.3761 25.3962C0.501023 27.8196 1.51361 29.563 2.18867 29.7976C4.27635 30.5246 6.41404 29.2191 7.57039 27.0692C8.72043 24.9194 8.58298 22.1285 8.05168 20.8542L8.03287 20.8073L8.67042 20.3383C9.08302 20.0334 9.48931 19.7519 9.84553 19.5095C9.64557 20.1896 9.50175 20.9949 9.4268 22.1675C9.33929 23.5435 9.78933 25.3258 10.3831 26.0294C10.6457 26.3342 10.9582 26.3421 11.152 26.3421C11.8395 26.3421 12.152 25.6306 12.4958 24.7786C12.9209 23.7388 13.2959 22.5349 13.2959 22.5349C13.2959 22.5349 12.8271 25.7949 14.1085 25.7949C14.5773 25.7949 15.046 25.0366 15.2586 24.6457V24.6535C15.2586 24.6535 15.2711 24.63 15.2961 24.5753C15.3223 24.5268 15.3473 24.4773 15.3711 24.4269V24.4112C15.5586 24.0047 15.9774 23.0744 16.6024 21.5343C17.4087 19.5487 18.1838 17.0627 18.1838 17.0627C18.1838 17.0627 18.2588 17.6724 18.4901 18.6731C18.5853 19.0846 18.7584 19.5223 18.9327 19.9628L18.9327 19.9628L18.9327 19.9629L18.9327 19.9629C19.0101 20.1585 19.0877 20.3546 19.1588 20.5493C18.9713 20.8777 18.8588 21.0654 18.8588 21.0654L18.8651 21.0732C18.7151 21.3234 18.5463 21.5892 18.3713 21.8549C18.243 22.0469 18.1096 22.2443 17.9776 22.4396C17.4536 23.2148 16.9511 23.9584 16.8712 24.2081C16.7524 24.5755 16.7774 24.8491 17.0087 25.0681C17.1775 25.2244 17.4775 25.2556 17.7963 25.2244C18.3713 25.1774 18.7714 24.9977 18.9714 24.8882C19.2839 24.7475 19.6402 24.5364 19.984 24.2237C20.609 23.6453 20.9903 22.8244 20.9528 21.7299C20.9341 21.128 20.7778 20.5338 20.584 19.971L20.5847 19.9697C20.6408 19.8685 20.6968 19.7672 20.7528 19.6583C21.7404 17.8523 22.5029 15.8667 22.5029 15.8667C22.5029 15.8667 22.578 16.4765 22.8092 17.4772C22.9066 17.8941 23.084 18.3427 23.262 18.7926C23.3009 18.891 23.3399 18.9895 23.378 19.0877C22.4529 20.0336 21.8716 21.1281 21.6716 21.8473C21.3028 23.1763 21.5904 23.7782 22.1342 23.919C22.3779 23.9815 22.728 23.8408 22.9904 23.7001C23.3155 23.5672 23.7092 23.3404 24.0718 23.0043C24.6969 22.4258 25.2969 21.6206 25.2657 20.5339C25.2469 20.0336 25.1407 19.5411 24.9969 19.072C25.7845 18.6655 26.8033 18.431 28.0972 18.6264C30.8787 19.0329 31.4287 21.2062 31.3225 22.1131C31.2163 23.02 30.635 23.5203 30.4411 23.6766C30.2474 23.8251 30.1849 23.8799 30.2036 23.9893C30.2286 24.1536 30.3161 24.1457 30.4849 24.1145C30.7162 24.0675 31.9475 23.3718 31.9975 21.6989C32.0725 19.5488 30.4411 17.2035 27.5471 17.2268ZM6.09549 26.2718C5.17666 27.5304 3.88279 28.0073 3.33275 27.6008C2.73894 27.1708 2.97015 25.318 4.10156 23.9812C4.78912 23.1682 5.68295 22.4177 6.2705 21.9564C6.34947 21.8953 6.45333 21.8172 6.57527 21.7255L6.57562 21.7253L6.5777 21.7237C6.65779 21.6635 6.74563 21.5974 6.8393 21.5265C6.87681 21.4953 6.90181 21.4796 6.90181 21.4796C6.94552 21.4483 6.99546 21.4093 7.04542 21.3702L7.04547 21.3702L7.04557 21.3701C7.46436 23.2776 7.06432 24.9506 6.09549 26.2718ZM12.6213 21.1773L12.6213 21.1772C12.6942 20.9393 12.7597 20.7254 12.8146 20.5571C13.0146 19.9473 13.796 17.2268 13.6334 16.8514C13.4959 16.5622 12.9459 16.7967 12.4395 17.5003C12.127 17.9382 11.5957 19.0638 11.3457 20.0098C10.852 21.8861 11.0644 23.7857 11.4145 23.903C11.7508 24.0195 12.2712 22.3204 12.6213 21.1773ZM18.3587 23.8718C18.2212 23.9578 18.0961 24.0203 18.0399 23.9735C17.9961 23.9422 18.0961 23.8249 18.0961 23.8249C18.0961 23.8249 18.7899 22.8946 19.0649 22.4647C19.1185 22.3789 19.1758 22.2884 19.2361 22.1934L19.2362 22.1933C19.3514 22.0114 19.4774 21.8126 19.6087 21.5969V21.6907C19.6088 22.8164 18.7462 23.5669 18.3587 23.8718ZM22.8842 21.3623C22.5468 22.2692 22.5342 22.5584 22.6342 22.6522C23.1218 22.4333 23.9219 21.9096 23.9281 20.5024C23.9344 20.2912 23.8968 20.0646 23.8343 19.8301C23.3155 20.4008 23.0156 21.0027 22.8842 21.3623Z" fill="#CF649A"/>
</svg>
