<svg width="32" height="30" viewBox="0 0 32 30" fill="none" xmlns="http://www.w3.org/2000/svg">
<path d="M0.304064 10.4206C0.304064 10.4206 -0.47434 9.88698 0.459745 9.17441L2.63603 7.32357C2.63603 7.32357 3.25876 6.70045 3.91716 7.24336L24 21.7046V28.6391C24 28.6391 23.9903 29.728 22.521 29.6077L0.304064 10.4206Z" fill="#2489CA"/>
<path d="M5.44593 14.9363L0.237852 19.3817C0.237852 19.3817 -0.297315 19.7554 0.237852 20.4233L2.65589 22.4882C2.65589 22.4882 3.23022 23.0673 4.07865 22.4086L9.6 18.4779L5.44593 14.9363Z" fill="#1070B3"/>
<path d="M14.5407 14.9362L23.9996 8.06935L23.9382 1.19941C23.9382 1.19941 23.5343 -0.299932 22.1867 0.480464L9.59961 11.3722L14.5407 14.9362Z" fill="#0877B9"/>
<path d="M22.545 29.6125C23.0973 30.1479 23.7666 29.9725 23.7666 29.9725L31.1771 26.5135C32.1258 25.901 31.9926 25.1409 31.9926 25.1409V4.48503C31.9926 3.57718 31.0114 3.26328 31.0114 3.26328L24.5885 0.33047C23.185 -0.49121 22.2656 0.478188 22.2656 0.478188C22.2656 0.478188 23.4482 -0.328106 24.0265 1.19831V28.5107C24.0265 28.6984 23.9842 28.8831 23.8998 29.0493C23.7308 29.3724 23.3637 29.674 22.4833 29.5478L22.545 29.6125Z" fill="#3C99D4"/>
</svg>
